<svg xmlns="http://www.w3.org/2000/svg" viewBox="0 0 472.122 445"><g fill="#fff" stroke-linejoin="round"><path d="M444 444H6c-2.757 0-5-2.243-5-5V6c0-2.757 2.243-5 5-5h438c2.757 0 5 2.243 5 5v370.182l.488.29 20.68 12.325-20.68 12.324-.488.291V439c0 2.757-2.243 5-5 5z"/><path d="M444 443c2.205 0 4-1.795 4-4v-37.02a2 2 0 0 1 .976-1.718l19.24-11.465-19.24-11.465a2 2 0 0 1-.976-1.719V6c0-2.206-1.795-4-4-4H6C3.795 2 2 3.794 2 6v433c0 2.205 1.795 4 4 4h438m0 2H6a6 6 0 0 1-6-6V6a6 6 0 0 1 6-6h438a6 6 0 0 1 6 6v369.613l22.122 13.184L450 401.98V439a6 6 0 0 1-6 6z" fill="#ccc"/></g></svg>